<?xml version="1.0" standalone="no"?><!DOCTYPE svg PUBLIC "-//W3C//DTD SVG 1.1//EN" "http://www.w3.org/Graphics/SVG/1.1/DTD/svg11.dtd"><svg t="1707478707909" class="icon" viewBox="0 0 1024 1024" version="1.1" xmlns="http://www.w3.org/2000/svg" p-id="12007" width="64" height="64" xmlns:xlink="http://www.w3.org/1999/xlink"><path d="M384 0l-59.2 443.2 68.8-28.8L622.4 129.6 384 0z" fill="#FF318C" p-id="12008"></path><path d="M384 0l-59.2 443.2 68.8-28.8L622.4 129.6 384 0z" fill="#04A1DB" p-id="12009"></path><path d="M94.4 185.6L0 752l356.8-137.6L384 0 94.4 185.6z" fill="#21D789" p-id="12010"></path><path d="M622.4 129.6L440 331.2 0 752l332.8 243.2 416-377.6 254.4-310.4-131.2-268.8-249.6 91.2z" fill="#21D789" p-id="12011"></path><path d="M622.4 129.6L440 331.2 0 752l332.8 243.2 416-377.6 254.4-310.4-131.2-268.8-249.6 91.2z" fill="#1FD38F" p-id="12012"></path><path d="M372.8 787.2l233.6 180.8 256 56L1024 659.2 430.4 436.8l-57.6 350.4z" fill="#21D789" p-id="12013"></path><path d="M372.8 787.2l233.6 180.8 256 56L1024 659.2 430.4 436.8l-57.6 350.4z" fill="#04A1DB" p-id="12014"></path><path d="M192 832h640V192H192v640z" p-id="12015"></path><path d="M243.04 408.96a134.72 134.72 0 0 1 138.4-137.12 136.48 136.48 0 0 1 104.48 40.96l-37.12 42.88a97.92 97.92 0 0 0-67.84-29.92A78.56 78.56 0 0 0 304 407.52a78.56 78.56 0 0 0 76.8 83.36 96 96 0 0 0 69.76-31.04l37.12 37.6a135.84 135.84 0 0 1-108.8 48 134.08 134.08 0 0 1-136-136.48M528 272h59.84v221.6h118.88V544H528V272zM256 752h240v-40H256V752z" fill="#FFFFFF" p-id="12016"></path><path d="M48.32 462.24L0 752l192-183.68-143.68-106.08z" fill="#04A1DB" p-id="12017"></path></svg>