<?xml version="1.0" standalone="no"?><!DOCTYPE svg PUBLIC "-//W3C//DTD SVG 1.1//EN" "http://www.w3.org/Graphics/SVG/1.1/DTD/svg11.dtd"><svg t="1715600806307" class="icon" viewBox="0 0 1024 1024" version="1.1" xmlns="http://www.w3.org/2000/svg" p-id="1555" width="64" height="64" xmlns:xlink="http://www.w3.org/1999/xlink"><path d="M416.981333 767.616l58.666667 168.064 67.626667 7.082667 161.792-67.754667 10.026666-228.053333-18.730666-183.466667c26.837333-71.936 40.234667-103.594667 40.234666-94.890667 0 8.661333 36.266667 8.661333 108.8 0l70.570667-52.565333L938.666667 234.666667c-1.706667-39.68-6.656-68.266667-14.805334-85.717334-8.106667-17.408-10.752-32.981333-7.893333-46.72l-121.088-24.405333-166.826667 24.405333L550.826667 234.666667l-75.178667 172.928-58.666667 182.442666v177.578667z" fill="#8D715F" p-id="1556"></path><path d="M755.626667 12.288s52.010667 7.936 67.114666 13.909333c15.104 5.930667 68.992 42.496 81.109334 67.712 8.106667 16.810667-11.392 32.085333-58.453334 45.738667-15.018667-22.784-28.842667-34.176-41.514666-34.176-19.029333 0-80 0.256-98.389334 3.712-18.346667 3.413333-90.453333 76.928-119.68 114.474667-29.226667 37.546667-49.706667 67.626667-44.970666 89.258666 4.693333 21.632 23.893333 32.469333 37.802666 32.469334 13.909333 0 30.464 13.824 7.168 13.824-23.296 0-51.712-2.56-61.909333-13.824-11.264 19.114667-42.752 83.968-59.989333 128.128-17.237333 44.16-36.352 146.901333-36.352 238.549333 0 61.098667 22.058667 130.346667 66.261333 207.786667-42.325333-40.832-70.826667-86.869333-85.504-138.24-21.973333-77.013333-25.770667-120.490667-17.877333-182.954667 7.936-62.464 85.162667-266.24 103.381333-292.821333 1.962667-26.88 0.426667-104.362667 53.973333-166.186667 53.546667-61.866667 107.776-115.072 167.424-127.36 19.797333-4.48 40.448 0 40.448 0z" fill="#FFFFFF" p-id="1557"></path><path d="M625.92 46.762667c74.368-58.88 127.36-58.88 201.472-18.261334l-6.144-1.365333-5.888-1.28-3.84-0.853333-3.712-0.768-3.669333-0.725334-3.584-0.682666-3.456-0.682667-3.413334-0.597333-3.370666-0.597334a365.141333 365.141333 0 0 0-1.664-0.298666l-3.242667-0.512a315.392 315.392 0 0 0-1.621333-0.213334l-3.157334-0.469333a254.506667 254.506667 0 0 0-7.68-0.938667l-3.029333-0.298666c-25.898667-2.432-47.530667 0.256-76.8 9.770666l-3.413333 1.109334-3.541334 1.194666-5.376 1.877334-3.669333 1.365333-3.797333 1.408c-0.64 0.213333-1.28 0.426667-1.92 0.725333-47.488 18.005333-100.864 89.728-132.565334 144.768l-2.432 4.266667c-8.448 14.933333-15.146667 28.501333-19.584 39.125333l-1.109333 2.730667-1.322667 3.413333-1.194666 3.072-0.64 1.664-0.938667 2.602667-0.64 1.834667-0.64 1.877333-0.64 1.962667-0.682667 2.005333-0.64 2.048-0.597333 2.133333-0.938667 3.242667-0.597333 2.218667-0.597333 2.304-0.554667 2.304-0.554667 2.389333-0.256 1.194667-0.469333 2.432c-4.650667 23.552-4.693333 51.754667 12.416 74.453333-7.978667 5.973333-23.68-9.941333-24.661333-17.877333l-3.925334 7.893333-2.688 5.546667-2.346666 4.821333-2.602667 5.504-2.858667 6.016-2.005333 4.352-2.133333 4.565333-2.133334 4.778667-3.456 7.552-2.346666 5.333333-2.432 5.504-2.474667 5.674667-2.517333 5.845333c-1.706667 3.968-3.413333 8.021333-5.12 12.202667l-2.602667 6.314667-2.602667 6.485333-2.645333 6.613333-1.28 3.328-2.688 6.826667c-21.034667 54.698667-41.386667 119.936-45.312 175.530667l-0.469333 6.698666-0.426667 6.912-0.298667 4.778667-0.256 4.864-0.213333 4.992c-3.072 73.728 4.736 180.650667 104.618667 285.909333-35.413333-101.418667-39.552-180.693333-18.688-251.733333 0.682667-2.816 1.792-3.285333 3.413333-1.578667l0.426667 0.426667a13.226667 13.226667 0 0 1 0.426666 0.597333l0.426667 0.597334 0.512 0.725333 0.469333 0.810667 0.554667 0.853333 0.810667 1.493333 0.554666 1.109334 0.896 1.792 0.64 1.28 0.981334 2.133333 1.408 3.114667 0.384 0.853333c25.941333 58.794667 144.256 151.893333 165.845333 132.608 12.16-28.842667 4.309333-55.594667-8.448-86.314667l-1.706667-4.053333-1.706666-4.053333-2.688-6.229334-4.608-10.666666-1.877334-4.352-1.877333-4.394667c-11.904-28.288-23.594667-60.672-26.666667-100.608-5.248-79.061333 15.104-130.389333 34.133334-166.912l1.792-3.498667 0.938666-1.706666 1.792-3.370667 1.792-3.285333 2.645334-4.736 4.992-8.96 1.578666-2.858667 1.493334-2.773333 1.450666-2.688 0.682667-1.365334 1.365333-2.56c2.816-5.632 5.12-10.794667 6.613334-15.658666 9.301333-30.08 4.096-57.728-4.693334-84.437334l-1.024-2.986666a367.232 367.232 0 0 0-0.512-1.536l-1.066666-2.986667-1.066667-2.986667-1.664-4.522666-1.664-4.437334a19.712 19.712 0 0 1-0.725333-2.346666l-0.170667-0.896c-1.066667-5.376 0.298667-10.112 3.157333-7.850667 101.717333 81.493333 152.021333 71.552 176.042667 59.306667l1.536-0.853334 1.450667-0.768 1.365333-0.810666 1.322667-0.768c7.381333-4.48 13.824-15.914667 19.2-29.909334l0.896-2.432 0.896-2.474666 1.28-3.754667 0.853333-2.56 0.853333-2.56 0.768-2.602667 0.768-2.645333 0.768-2.645333 0.725334-2.645334 0.725333-2.645333 0.682667-2.602667 0.682666-2.645333 0.938667-3.925333 0.64-2.602667 0.554667-2.56 0.853333-3.84 0.768-3.669333 0.981333-4.821334 0.853334-4.565333 0.426666-2.176 0.213334-1.066667c1.28-7.253333 7.466667-4.010667 8.96 3.114667a152.746667 152.746667 0 0 1-4.352 74.837333c11.776-8.106667 23.381333-24.149333 33.237333-41.045333l1.749333-3.072 1.706667-3.114667 1.706667-3.072 1.621333-3.072 1.621333-3.072 1.536-2.986666 2.218667-4.522667 1.408-2.901333 1.322667-2.858667 0.682666-1.408 1.834667-4.053333 1.194667-2.645334 1.066666-2.474666 1.024-2.432 0.981334-2.261334 1.28-3.2 1.152-2.858666c0 59.733333-10.965333 96.853333-23.253334 125.397333l-1.408 3.2a337.706667 337.706667 0 0 1-0.682666 1.536l-1.408 3.114667-1.408 2.986666-1.408 2.986667-1.408 2.944-2.133334 4.266667-6.144 12.330666-1.92 3.968-1.28 2.645334-1.237333 2.602666-0.597333 1.28-1.194667 2.645334c-2.688 6.101333-5.12 12.202667-6.997333 18.56-4.821333 16.341333-4.266667 26.24-0.426667 37.973333l0.725333 1.92 0.725334 2.005333 0.810666 2.090667 0.853334 2.133333 0.426666 1.066667 0.938667 2.218667 2.56 5.888 2.218667 5.205333 1.792 4.181333 1.877333 4.48 1.28 3.157334 1.28 3.328 0.682667 1.706666 1.365333 3.584 1.408 3.754667c6.784 18.474667 14.421333 43.349333 21.845333 78.890667 15.317333 73.514667 11.733333 142.293333 4.864 192.981333l-0.725333 5.034667-0.341333 2.474666-0.725334 4.821334-1.493333 9.258666-0.768 4.394667-0.725333 4.309333-1.152 6.186667-0.768 3.925333-1.109334 5.632-1.408 6.997334-1.664 7.808-2.474666 11.477333-0.725334 3.498667-1.024 5.034666-1.066666 5.162667-0.469334 2.645333-0.938666 5.077334-0.426667 2.389333-0.64 3.584-0.597333 3.584-0.597334 3.626667-0.554666 3.669333-0.554667 3.669333-0.469333 3.626667-0.426667 3.584-0.426667 3.541333-0.256 2.304-0.213333 2.304-0.213333 2.261334-0.170667 2.261333-0.170667 2.176-0.128 2.133333-0.085333 2.133334v1.024l-0.085333 2.005333c0 2.346667 0 4.565333 0.085333 6.656l0.085333 1.792c0.554667 7.765333 2.133333 13.44 5.333334 15.744l1.109333 0.768 1.152 0.896 1.28 1.024 1.322667 1.109333 1.365333 1.194667 0.938667 0.853333 0.981333 0.853334 0.938667 0.938666 0.981333 0.981334 0.938667 0.981333 0.981333 1.024 0.426667 0.554667 0.981333 1.109333c10.752 12.928 17.493333 32.938667-13.397333 53.418667-26.453333 17.578667-55.552 20.778667-79.616 18.346666l-2.389334-0.298666a145.706667 145.706667 0 0 1-3.541333-0.426667l-2.304-0.384a146.56 146.56 0 0 1-1.109333-0.170667l-2.261334-0.426666a146.517333 146.517333 0 0 1-3.285333-0.597334l-2.133333-0.469333-2.090667-0.512-2.048-0.469333a141.482667 141.482667 0 0 1-1.962667-0.554667l-1.962666-0.512a137.429333 137.429333 0 0 1-0.938667-0.298667l-1.877333-0.554666-1.792-0.554667a126.976 126.976 0 0 1-1.749334-0.597333l-1.706666-0.597334-1.621334-0.597333-1.578666-0.597333-1.536-0.597334-1.408-0.597333c-23.552-10.069333-66.474667-11.477333-80.768 0-1.408 1.152-2.56 2.218667-3.626667 3.242667l-2.005333 2.005333-1.024 0.981333-0.554667 0.426667-0.554667 0.512-0.554666 0.426667-0.597334 0.426666-0.597333 0.469334-0.682667 0.426666a21.802667 21.802667 0 0 1-0.682666 0.426667l-0.725334 0.426667-0.810666 0.341333-0.853334 0.426667a29.013333 29.013333 0 0 1-0.853333 0.341333l-0.981333 0.384a35.498667 35.498667 0 0 1-0.512 0.170667l-1.066667 0.341333-1.152 0.341333-1.28 0.341334-0.597333 0.170666-1.365334 0.298667-1.450666 0.298667a83.370667 83.370667 0 0 1-0.768 0.170666l-1.621334 0.256-1.706666 0.298667a122.026667 122.026667 0 0 1-0.853334 0.128l-1.92 0.256-1.962666 0.256-2.133334 0.256-2.218666 0.213333-2.389334 0.256-2.517333 0.170667-2.645333 0.213333-4.266667 0.298667-4.608 0.256-4.949333 0.213333-5.333334 0.213334-3.797333 0.128-3.968 0.128-4.138667 0.128-6.613333 0.128-9.472 0.128-10.282667 0.128-8.32 0.042666-11.861333 0.042667h-3.114667c-121.6 0-231.125333-106.24-267.52-155.733333l-3.626666-4.949334-2.730667-3.797333-2.986667-4.181333-3.242666-4.522667a1294.72 1294.72 0 0 1-1.706667-2.432l-3.584-5.12a1381.973333 1381.973333 0 0 1-1.877333-2.730667l-3.925334-5.632-4.096-6.058666c-58.112-85.717333-170.325333-270.506667-200.533333-459.221334-36.48-227.328 54.058667-294.954667 94.122667-303.104l2.474666-0.512 2.645334-0.469333 2.730666-0.512 1.450667-0.213333 2.986667-0.469334c45.909333-6.912 134.912-7.253333 171.477333 79.488 20.906667 49.536 30.293333 127.317333 28.16 233.344l-0.170667 8.192-0.085333 4.138667-0.256 8.405333-1.024 25.770667-0.426667 8.832-0.512 8.96c-0.554667 10.453333-1.28 21.162667-2.005333 32.128l10.24-24.362667 8.533333-19.968 5.717334-13.44 6.570666-15.317333 6.186667-14.336 3.925333-9.002667c11.221333-25.685333 27.306667-52.394667 48.213334-80.213333l1.962666-2.56v-40.789333a147.285333 147.285333 0 0 0-2.858666-8.661334l-1.024-2.730666a256.597333 256.597333 0 0 0-2.901334-7.253334l-1.28-3.114666a348.074667 348.074667 0 0 0-0.725333-1.578667l-1.408-3.285333a412.458667 412.458667 0 0 0-0.768-1.706667c-10.752-19.2-13.397333-43.52-11.733333-62.122667l0.170666-2.090666c1.664-15.061333 6.144-25.898667 11.221334-26.368h62.378666c1.152-2.432 2.602667-5.034667 4.394667-7.722667l0.981333-1.536 1.066667-1.536 1.152-1.536 1.194667-1.621333 0.597333-0.810667 1.28-1.621333 1.365333-1.706667 1.408-1.706667 1.450667-1.706666 1.536-1.749334 1.621333-1.792 1.664-1.834666 1.706667-1.877334 1.792-1.877333 1.834667-1.92 1.92-1.962667 0.981333-0.981333 2.005333-2.005333 2.048-2.005334 2.133334-2.090666 3.328-3.114667 3.413333-3.242667 2.389333-2.133333 2.432-2.261333 2.56-2.218667 2.56-2.304 3.925334-3.456 4.138666-3.541333 2.816-2.389334 2.858667-2.432 4.437333-3.712 3.029334-2.517333 4.693333-3.84 4.778667-3.84 3.285333-2.645333 3.370667-2.688z m267.904 41.557333c21.290667 0 27.221333 11.52 17.834667 34.517333 0.213333 0.085333 0.298667 0.256 0.341333 0.597334v0.256l-0.042667 0.426666-0.085333 0.426667-0.128 0.554667-0.170667 0.597333-0.213333 0.682667-0.256 0.768-0.469333 1.28-0.597334 1.408-0.426666 1.024-0.768 1.706666-0.853334 1.834667-1.28 2.730667-1.109333 2.261333-1.194667 2.389333-1.749333 3.413334-0.938667 1.877333-3.114666 5.930667-3.541334 6.570666-1.877333 3.413334c-1.365333 2.517333-2.688 4.778667-4.053333 6.826666l-0.768 1.28-1.194667 1.706667c-9.813333 14.122667-18.688 18.090667-26.368 18.176h-0.512l-0.938667-0.042667-0.853333-0.042666-0.469333-0.042667-1.109334-0.170667-1.109333-0.170666-0.426667-0.085334-0.853333-0.170666-0.853333-0.213334-0.810667-0.213333-1.237333-0.341333-1.194667-0.384-1.536-0.512-5.888-2.133334-2.133333-0.810666-2.474667-0.938667-2.688-1.066667-1.962667-0.853333-2.005333-0.853333-2.133333-0.896-2.176-1.024-1.109334-0.512-2.304-1.066667-2.346666-1.152-2.389334-1.194667c-14.421333-7.424-30.72-18.133333-40.362666-31.914666-7.253333-10.368-4.906667-20.224 6.954666-29.525334l0.725334-0.597333 1.28-0.981333c1.92-1.322667 4.010667-2.688 6.314666-4.010667l1.408-0.810667 1.749334-0.938666 1.834666-0.981334 1.408-0.682666 1.450667-0.725334 2.517333-1.194666 2.602667-1.152 1.066667-0.469334 2.218666-0.938666 1.152-0.426667 2.304-0.981333c32-7.637333 58.581333-11.434667 79.914667-11.434667z m-240.170667-3.925333a42.026667 42.026667 0 0 1 41.557334-2.048l1.28 0.64 0.682666 0.341333 1.237334 0.682667 1.194666 0.682666 1.450667 0.896 1.408 0.938667 0.554667 0.384 1.066666 0.725333 1.024 0.768 0.981334 0.768 0.981333 0.768 1.365333 1.152 0.853334 0.725334 0.853333 0.768 0.810667 0.725333 1.109333 1.024 1.024 1.024 1.237333 1.237333 2.133334 2.304c4.821333 4.821333 14.848 9.088 30.037333 12.714667-15.786667 0-33.706667 3.968-53.76 11.861333a71.808 71.808 0 0 0-22.272 14.165334l-0.938667 0.938666-1.237333 1.152-1.152 1.194667-0.597333 0.597333-0.554667 0.554667-1.066667 1.194667-1.28 1.450666-1.194666 1.408-0.938667 1.109334-0.853333 1.109333-0.853334 1.066667-1.152 1.536-1.066666 1.493333-1.28 1.792-3.072 4.565333-0.597334 0.853334-0.384 0.426666-0.213333 0.256c-0.298667 0.256-0.426667 0.213333-0.469333-0.213333V158.421333l0.085333-1.066666 0.128-1.578667 0.213333-2.730667 0.725334-7.296 0.298666-3.328 0.298667-3.285333 0.128-2.090667 0.085333-1.024 0.085334-1.92 0.042666-2.688a10.965333 10.965333 0 0 0-0.256-2.133333l-0.128-0.64-0.256-0.938667-0.298666-1.024-0.298667-1.109333-0.384-1.109333-1.450667-4.352-1.109333-3.413334-0.682667-2.090666-0.426666-1.450667-0.384-1.450667-0.384-1.493333-0.170667-0.682667-0.298667-1.450666c-1.749333-8.746667-1.365333-17.792 6.528-23.68z" fill="#392621" p-id="1558"></path><path d="M795.52 354.048c13.738667 3.669333 25.472 3.669333 35.242667 0 14.634667-5.461333 23.637333-5.034667 29.44-10.026667 5.888-4.992 21.888-17.92 28.586666-25.856 6.698667-7.936 4.394667 7.893333 0 19.328-4.394667 11.392-22.912 64.298667-28.586666 68.693334-5.589333 4.437333-11.093333 7.253333-8.362667-12.842667 1.834667-13.44 3.413333-22.357333 4.693333-26.837333-8.32 27.648-14.08 43.605333-17.237333 47.914666-4.693333 6.4-28.672 12.8-37.589333-4.138666-5.973333-11.306667-8.021333-30.037333-6.186667-56.234667z" fill="#FFFFFF" p-id="1559"></path></svg>