<?xml version="1.0" standalone="no"?><!DOCTYPE svg PUBLIC "-//W3C//DTD SVG 1.1//EN" "http://www.w3.org/Graphics/SVG/1.1/DTD/svg11.dtd"><svg t="1727229749902" class="icon" viewBox="0 0 1025 1024" version="1.1" xmlns="http://www.w3.org/2000/svg" p-id="6051" width="64.0625" height="64" xmlns:xlink="http://www.w3.org/1999/xlink"><path d="M122.88 333.12h56v258.88c-14.72 2.56-27.84 4.8-39.04 6.08s-22.72 1.92-33.92 1.92c-33.92 0-59.84-7.68-77.44-23.04-17.6-15.36-26.56-37.76-26.56-66.88 0-28.8 8.64-51.52 25.92-68.48 17.6-16.96 40.96-25.6 70.08-25.6 4.8 0 8.96 0.32 12.48 0.64 3.52 0.32 7.68 1.28 12.48 2.56v-86.08z m0 130.88c-3.2-1.28-6.4-2.24-9.6-2.56a85.12 85.12 0 0 0-9.6-0.64c-14.08 0-24.96 4.16-32.96 12.48s-12.16 20.16-12.16 35.52c0 14.72 3.84 25.92 11.52 33.92s18.56 12.16 32.64 12.16c3.2 0 6.4-0.32 9.6-0.64s6.4-0.96 10.56-1.6V464z m145.28-44.16v128.96c0 22.72-0.96 40.32-2.88 52.48s-5.44 23.04-9.92 32.64c-4.8 9.28-10.56 16.96-17.6 23.04-7.04 6.08-16.64 12.48-28.48 18.88l-51.84-24.96c12.16-6.08 21.44-11.84 28.48-17.6 7.04-5.76 12.16-12.48 15.36-20.48 4.16-8 6.72-17.6 8.64-29.12 1.6-11.2 2.56-29.44 2.56-54.08v-110.08h55.68v0.32z m-56.32-86.72h56v57.92H211.84v-57.92z m90.24 98.88c12.16-5.44 24-9.28 35.84-12.16s24.64-3.84 38.08-3.84c14.08 0 25.92 1.92 35.52 5.44 9.6 3.52 16.64 9.28 20.48 16.64 1.92 4.16 3.52 9.28 4.48 15.36 0.96 6.4 1.6 15.36 1.6 27.52v113.92c-12.8 1.28-26.24 2.56-40.96 3.84-14.72 1.28-27.52 1.92-39.04 1.92-23.36 0-40.64-4.48-51.52-13.12-10.88-8.64-16.64-22.08-16.64-40 0-19.2 7.36-33.92 22.4-44.16 15.04-9.92 39.68-16.32 74.56-18.88v-13.12c0-4.8-1.6-8-4.48-9.92s-8.32-2.88-15.36-2.88c-9.92 0-20.8 1.28-32 3.84-11.2 2.56-22.4 7.04-32.96 13.12V432z m87.04 88.96c-18.56 1.92-31.36 4.8-38.4 8.64-7.04 3.52-10.56 8.96-10.56 15.36 0 6.08 1.92 10.24 5.44 12.48 3.52 2.24 9.28 3.52 16.64 3.52 4.8 0 8.96-0.32 13.12-0.64 3.84-0.32 8.64-0.96 14.08-1.6l-0.32-37.76z m75.84-92.8c16.64-4.16 32.32-7.04 46.4-8.96 14.4-1.92 28.16-2.88 41.6-2.88 14.72 0 27.2 1.6 37.44 4.48 10.24 2.88 18.56 7.68 24.64 14.4 6.08 6.08 9.92 12.8 12.16 20.48s2.88 18.56 2.88 32.64v110.08h-56v-108.16c0-10.56-1.92-18.24-6.08-22.4-4.16-4.48-10.88-6.4-21.12-6.4-4.16 0-8 0.32-11.52 0.64-3.52 0.32-8.32 1.6-14.4 3.52v133.12h-56v-170.56z m187.2 199.68c9.92 5.44 20.16 9.28 30.08 11.52s20.16 3.52 30.08 3.52c18.56 0 32.32-3.84 40.64-12.16 8.32-8 12.48-20.8 12.48-38.08v-0.64c-6.08 2.56-11.84 4.48-17.6 5.44s-12.16 1.6-19.52 1.6c-24.64 0-44.16-7.36-58.56-22.4-14.4-15.04-21.44-35.2-21.44-60.48 0-32 10.88-56.64 32.96-73.92s53.44-26.24 94.72-26.24c12.16 0 23.68 0.64 35.52 1.92s24 3.2 37.44 6.08l-18.88 40c-7.36-1.28-9.92-1.6-7.36-0.96 2.24 0.64 0.64 0.64-5.44 0v6.08l0.96 23.04v31.04c0.64 4.16 0.96 7.68 0.96 11.52v26.56c0 24-1.28 42.56-3.52 55.36-2.24 13.12-6.4 24-12.48 33.6-8.64 14.08-20.48 24.32-35.52 31.04s-33.28 9.92-54.4 9.92c-11.2 0-21.76-0.96-31.36-2.56s-19.52-4.48-29.44-8.64l-0.32-52.16z m110.72-166.72h-5.12c-6.08 0-11.84 0.64-17.6 1.92-5.76 1.28-10.88 3.2-15.36 6.08-6.72 4.16-11.52 9.28-15.04 16-3.2 6.72-5.12 15.04-5.12 24.96 0 14.08 3.2 24.96 9.92 32.64s16 11.52 28.16 11.52c4.16 0 7.68-0.32 10.88-0.96 3.2-0.64 7.04-1.28 10.88-1.92v-19.84c0-3.2-0.32-6.72-0.64-9.92s-0.64-7.04-0.64-10.88v-25.92l-0.96-18.88 0.64-4.8z m173.12-46.08c28.16 0 49.92 8.32 65.92 24.64s24 38.72 24 67.52c0 29.44-8.32 52.8-24.96 70.08s-39.04 25.92-66.88 25.92c-28.16 0-50.24-8.32-66.56-24.96s-24.64-39.04-24.64-66.88c0-30.08 8.32-53.44 24.96-70.4 16.96-17.28 39.36-25.92 68.16-25.92z m-0.96 142.08c10.56 0 18.88-4.16 24.96-12.48s8.96-20.16 8.96-35.52c0-15.36-2.88-27.2-8.96-35.84s-14.4-13.12-24.96-13.12c-11.2 0-19.84 4.48-25.92 13.12-6.08 8.64-8.96 20.8-8.96 35.84s2.88 27.2 8.96 35.52c5.76 8 14.4 12.48 25.92 12.48z" fill="#092E20" p-id="6052"></path></svg>