<?xml version="1.0" standalone="no"?><!DOCTYPE svg PUBLIC "-//W3C//DTD SVG 1.1//EN" "http://www.w3.org/Graphics/SVG/1.1/DTD/svg11.dtd"><svg t="1707478690862" class="icon" viewBox="0 0 1968 1024" version="1.1" xmlns="http://www.w3.org/2000/svg" p-id="10901" width="123" height="64" xmlns:xlink="http://www.w3.org/1999/xlink"><path d="M989.798 674.734c-1.797-3.973-2.688-11.592-2.688-22.779v-75.5c0-15.963-1.423-27.816-4.25-35.522-4.116-11.07-9.656-19.036-16.603-23.844-6.953-4.833-15.253-7.24-24.899-7.24-18.8 0-38.574 12.488-59.295 37.453V509.85h-8.289l-53.3 21.616 2.883 6.948c5.033-1.93 9.34-2.888 12.944-2.888 3.343 0 6.016 0.83 8.007 2.504 1.997 1.685 3.467 4.823 4.445 9.462 0.972 4.633 1.454 17.592 1.454 38.82v65.648c0 12.877-1.587 21.602-4.736 26.158-3.15 4.588-9.227 6.861-18.243 6.861h-3.865v6.953h87.475v-6.953c-9.667 0-16.072-0.86-19.22-2.621-3.16-1.726-5.643-4.465-7.435-8.197-1.413-2.816-2.12-10.24-2.12-22.206v-93.26c15.181-16.733 30.439-25.094 45.753-25.094 9.912 0 16.957 3.63 21.15 10.911 4.173 7.27 6.278 18.954 6.278 35.036v72.412c0 10.179-0.267 16.215-0.768 18.166-1.296 4.885-3.57 8.591-6.851 11.09-3.287 2.509-9.052 3.768-17.29 3.768h-3.666v6.953h87.465v-6.953c-8.484 0-14.32-0.9-17.465-2.698a15.82 15.82 0 0 1-6.87-7.552zM1203.37 522.68c-0.906-0.322-4.127-0.481-9.667-0.481h-37.442c-12.375-8.238-26.988-12.365-43.832-12.365-20.598 0-37.49 6.313-50.683 18.929-13.205 12.626-19.79 27.673-19.79 45.184 0 11.458 2.899 21.919 8.684 31.375 5.806 9.472 14.09 16.84 24.92 22.108-13.261 11.08-21.73 19.646-25.396 25.693-3.67 6.046-5.509 11.315-5.509 15.825 0 3.989 1.372 7.563 4.142 10.727 2.775 3.159 7.516 6.728 14.198 10.71-12.232 12.745-18.811 19.718-19.707 20.865-6.804 8.489-11.325 15.124-13.522 19.891a22.088 22.088 0 0 0-2.12 9.257c0 6.948 4.829 13.645 14.47 20.106 17.136 11.193 38.103 16.784 62.95 16.784 32.323 0 58.511-9.4 78.587-28.186 13.645-12.749 20.48-26.394 20.48-40.945 0-10.562-3.569-19.44-10.721-26.654-7.143-7.199-16.702-11.648-28.678-13.312-7.869-1.163-25.057-2.064-51.558-2.699-14.413-0.399-23.434-0.844-27.039-1.372-6.19-0.896-10.337-2.37-12.441-4.428-2.13-2.064-3.185-4.184-3.185-6.37 0-2.575 0.993-5.693 2.985-9.37 2.002-3.676 5.837-7.956 11.494-12.85 9.145 2.59 18.08 3.87 26.85 3.87 21.227 0 38.154-5.857 50.77-17.572 12.626-11.71 18.928-25.804 18.928-42.28 0-14.413-3.614-26.261-10.813-35.528h22.973c5.54 0 8.786-0.205 9.759-0.584 0.963-0.379 1.638-0.896 2.028-1.541 0.64-1.285 0.972-3.605 0.972-6.953 0-2.96-0.384-5.023-1.162-6.17a3.267 3.267 0 0 0-1.925-1.664z m-129.766 169.252c15.57 2.192 37.847 3.661 66.8 4.444 19.825 0.517 33.09 2.176 39.783 5.018 6.563 2.826 9.86 7.578 9.86 14.28 0 9.277-5.514 17.991-16.516 26.163-10.993 8.176-28.094 12.262-51.262 12.262-24.33 0-42.936-3.983-55.798-11.97-7.475-4.624-11.207-10.03-11.207-16.215 0-4.777 1.551-9.98 4.644-15.637 3.077-5.678 7.654-11.781 13.696-18.345z m64.686-77.44c-6.308 7.347-14.362 11.013-24.141 11.013-10.302 0-18.79-4.254-25.482-12.754-8.756-11.197-13.128-26.967-13.128-47.298 0-15.688 3.21-27.361 9.646-34.96 6.43-7.593 14.413-11.381 23.936-11.381 10.307 0 18.734 4.25 25.303 12.743 8.878 11.577 13.333 27.607 13.333 48.072 0.01 15.713-3.16 27.228-9.467 34.565z m-419.01-104.648c-14.675 0-28.576 3.825-41.714 11.48-13.117 7.659-23.715 19.502-31.759 35.532-8.049 16.026-12.068 32.139-12.068 48.369 0 22.267 6.626 42.347 19.886 60.242 15.708 21.238 36.885 31.857 63.534 31.857 16.343 0 31.171-4.112 44.503-12.35 13.328-8.233 23.793-20.47 31.37-36.685 7.599-16.22 11.403-32.256 11.403-48.087 0-22.533-6.892-42.49-20.66-59.853-16.23-20.331-37.713-30.505-64.496-30.505z m37.073 158.326c-8.115 10.312-18.412 15.447-30.9 15.447-16.736 0-30.217-9.313-40.442-27.996-10.24-18.657-15.355-40.863-15.355-66.6 0-15.97 2.12-29.041 6.37-39.21 4.249-10.163 9.814-17.275 16.696-21.345 6.896-4.05 13.731-6.078 20.567-6.078 14.162 0 25.815 6.18 34.959 18.54 13.527 18.017 20.275 42.742 20.275 74.153-0.005 25.093-4.055 42.793-12.17 53.09z m556.109-158.326c-14.674 0-28.575 3.825-41.708 11.48-13.127 7.659-23.736 19.502-31.77 35.532-8.038 16.026-12.052 32.139-12.052 48.369 0 22.267 6.625 42.347 19.881 60.242 15.693 21.238 36.874 31.857 63.524 31.857 16.343 0 31.186-4.112 44.493-12.35 13.332-8.233 23.798-20.47 31.396-36.685 7.577-16.22 11.381-32.256 11.381-48.087 0-22.533-6.87-42.49-20.654-59.853-16.215-20.331-37.719-30.505-64.491-30.505z m37.084 158.326c-8.115 10.312-18.427 15.447-30.894 15.447-16.748 0-30.229-9.313-40.458-27.996-10.24-18.657-15.355-40.863-15.355-66.6 0-15.97 2.135-29.041 6.374-39.21 4.24-10.163 9.815-17.275 16.702-21.345 6.886-4.05 13.747-6.078 20.582-6.078 14.147 0 25.805 6.18 34.939 18.54 13.522 18.017 20.27 42.742 20.27 74.153-0.005 25.093-4.055 42.793-12.16 53.09z m-755 6.564c-1.67-4.106-2.51-11.704-2.51-22.779v-76.073c0-15.964-1.412-27.673-4.259-35.149-4.25-10.941-10.01-18.816-17.28-23.644-7.276-4.833-15.6-7.24-25.016-7.24-9.641 0-19.057 2.417-28.186 7.24-9.14 4.828-20.337 14.946-33.597 30.403-2.704-12.227-8.049-21.56-16.031-27.996-7.977-6.426-17.51-9.646-28.57-9.646-6.569 0-13.204 1.356-19.896 4.055a69.253 69.253 0 0 0-18.734 11.392c-2.304 1.93-9.912 9.333-22.779 22.21V509.85h-8.29L316.1 531.476l2.882 6.948c5.033-1.94 9.339-2.887 12.943-2.887 3.344 0 5.98 0.814 7.906 2.416 1.925 1.613 3.348 4.537 4.26 8.776 1.167 5.668 1.735 18.217 1.735 37.663v67.579c0 10.936-0.84 18.309-2.498 22.113-1.68 3.81-4.127 6.559-7.337 8.294-3.226 1.762-8.878 2.617-16.994 2.617v6.947h87.46v-6.947c-9.646 0-16.061-0.855-19.21-2.617-3.149-1.735-5.54-4.336-7.142-7.808-1.603-3.476-2.402-10.998-2.402-22.6v-94.817c5.786-7.086 14.024-13.44 24.71-19.108 6.824-3.732 13.71-5.606 20.664-5.606 10.168 0 18.084 4.127 23.757 12.365 4.25 6.313 6.369 16.665 6.369 31.088v76.073c0 10.553-0.323 16.927-0.963 19.103-1.423 4.65-3.963 8.115-7.628 10.43-3.666 2.319-10.4 3.476-20.173 3.476v6.953h89.395v-6.953c-9.021 0-15.38-0.993-19.113-3-3.732-1.992-6.272-4.47-7.629-7.43-1.346-2.964-2.022-10.48-2.022-22.599v-84.393l-0.394-8.3 0.394-2.124c9.79-9.268 18.12-15.601 25.016-19.016 6.871-3.41 13.732-5.115 20.567-5.115 11.075 0 19.113 4.122 24.136 12.355 3.476 5.908 5.217 16.097 5.217 30.51v76.073c0 10.306-0.246 16.537-0.773 18.734-1.285 4.505-3.41 7.787-6.374 9.85-4.255 2.965-10.179 4.435-17.767 4.435h-3.666v6.953h87.276v-6.953c-7.85 0-13.512-0.994-16.993-3-3.487-1.982-5.883-4.368-7.163-7.22z" fill="#422E25" p-id="10902"></path><path d="M217.334 316.099c-29.215-37.105-56.162-56.98-72.105-95.75-8.965 33.972-33.408 38.918-55.767 68.194-35.738 46.781-78.592 140.646-67.216 228.725 6.902 53.51 26.435 94.915 52.905 130.72 16 21.641 31.181 36.448 47.493 49.53 20.373 16.353 21.996 23.363 22.58 75.505l14.295 4.26h1.433c-0.21-19.764-5.089-44.672 1.434-62.531 7.362-20.157 37.018-33.367 50.048-49.73 17.992-22.58 35.574-49.01 45.757-78.127 36.055-102.947 6.846-188.098-34.18-259.599-2.161-3.768-3.984-7.777-6.677-11.197z" fill="#2AA515" p-id="10903"></path><path d="M1615.365 449.162c-19.051-8.499-44.221-12.759-75.51-12.759h-117.212v7.158h8.694c7.352 0 13.174 1.244 17.475 3.763 4.31 2.499 7.173 5.443 8.596 8.77 1.418 3.354 2.13 11.715 2.13 25.099v172.232c0 13.516-0.579 21.632-1.74 24.33a21.77 21.77 0 0 1-8.986 9.748c-4.05 2.391-9.877 3.574-17.475 3.574h-8.694v7.143h117.212c16.876 0 29.215-0.758 37.09-2.31 17.756-3.338 32.783-8.079 45.076-14.197a112.154 112.154 0 0 0 32.533-24.325c9.395-10.092 17.054-22.923 22.983-38.431 5.919-15.504 8.873-32.466 8.873-50.873 0-26.66-6.01-50.534-18.048-71.639-12.022-21.089-29.696-36.858-52.997-47.283z m-21.826 212.782c-11.326 14.684-27.746 22.016-49.23 22.016-6.558 0-11.586-0.967-15.052-2.898a10.91 10.91 0 0 1-5.212-5.596c-1.034-2.447-1.546-9.072-1.546-19.88v-204.31c21.483-0.122 36.874 1.813 46.141 5.807 13.128 5.652 23.885 16.348 32.25 32.04 10.558 20.092 15.837 46.92 15.837 80.533-0.015 41.703-7.736 72.469-23.188 92.288z" fill="#8E704E" p-id="10904"></path><path d="M1568.63 457.083c-9.257-3.989-24.643-5.919-46.142-5.806v204.308c0 10.803 0.517 17.434 1.536 19.881 1.024 2.448 2.77 4.311 5.212 5.596 3.482 1.93 8.5 2.898 15.074 2.898 21.478 0 37.903-7.332 49.223-22.016 15.447-19.82 23.168-50.585 23.168-92.277 0-33.618-5.273-60.452-15.836-80.533-8.36-15.703-19.097-26.399-32.235-32.051z" fill="#FFFFFF" p-id="10905"></path><path d="M1931.264 580.46c-10.025-8.233-27.5-15.253-52.347-21.044 23.05-5.78 39.148-13.609 48.292-23.46 9.129-9.84 13.706-21.068 13.706-33.694 0-11.97-3.61-23.255-10.793-33.884-7.219-10.62-17.075-18.591-29.547-23.936-12.483-5.346-33.73-8.018-63.719-8.018H1711.34v7.163c11.97 0 20.147 1.075 24.52 3.261 4.372 2.196 7.449 5.12 9.174 8.796 1.751 3.666 2.611 12.585 2.611 26.721v169.933c0 14.152-0.86 23.04-2.61 26.65-1.731 3.604-4.767 6.528-9.079 8.776-4.316 2.252-12.513 3.384-24.632 3.384v7.137h133.033c37.09 0 65.331-7.772 84.767-23.357 15.846-12.872 23.762-29.154 23.762-48.855 0.015-18.663-7.225-33.859-21.622-45.573z m-122.593-129.373c18.785-0.133 32.41 1.736 40.914 5.597 8.499 3.865 15.032 9.497 19.604 16.9 4.572 7.41 6.846 16.902 6.846 28.483 0 11.587-2.304 21.11-6.948 28.575-4.619 7.475-11.28 13.26-19.968 17.382-8.704 4.127-22.18 6.19-40.443 6.19h-0.02 0.02V451.087h-0.005z m69.314 206.116c-4.649 8.7-11.3 15.335-19.993 19.902-8.7 4.562-18.181 6.855-28.473 6.855-6.963 0-12.206-1.781-15.739-5.31-3.543-3.547-5.314-8.78-5.314-15.748l0.205-9.646v-83.989c19.686-0.128 34.488 1.736 44.416 5.601 9.892 3.866 17.68 10.635 23.357 20.358 5.668 9.717 8.494 20.705 8.494 32.926-0.005 10.68-2.33 20.373-6.953 29.051z" fill="#8E704E" p-id="10906"></path><path d="M1853.066 574.863c-9.917-3.875-24.709-5.729-44.416-5.6v83.988l-0.194 9.646c0 6.968 1.771 12.2 5.314 15.749 3.523 3.527 8.786 5.31 15.734 5.31 10.291 0 19.773-2.295 28.467-6.856a46.935 46.935 0 0 0 19.994-19.902c4.644-8.678 6.953-18.37 6.953-29.061 0-12.221-2.832-23.204-8.494-32.927-5.678-9.712-13.471-16.481-23.358-20.347z m16.016-44.226c4.633-7.465 6.947-16.988 6.947-28.575 0-11.581-2.283-21.069-6.855-28.482-4.588-7.399-11.11-13.03-19.61-16.902-8.489-3.87-22.134-5.729-40.919-5.596V554.2c18.273 0 31.754-2.063 40.443-6.19 8.699-4.117 15.365-9.897 19.994-17.372z m-60.411 23.567h-0.02z" fill="#FFFFFF" p-id="10907"></path></svg>