<?xml version="1.0" standalone="no"?><!DOCTYPE svg PUBLIC "-//W3C//DTD SVG 1.1//EN" "http://www.w3.org/Graphics/SVG/1.1/DTD/svg11.dtd"><svg t="1715600948153" class="icon" viewBox="0 0 1508 1024" version="1.1" xmlns="http://www.w3.org/2000/svg" p-id="6909" width="94.25" height="64" xmlns:xlink="http://www.w3.org/1999/xlink"><path d="M1030.725792 103.911013a67.028133 67.028133 0 0 0-17.228114 2.063785v0.807568h0.448649a141.773025 141.773025 0 0 0 13.459464 17.228114c3.409731 6.729732 6.281083 13.459464 9.690814 20.099467l0.807568-0.807568a23.598928 23.598928 0 0 0 8.972977-20.996764 94.6649 94.6649 0 0 1-5.024867-8.972977c-2.512433-4.217299-7.985949-6.281083-11.30595-9.690814" fill="#00758F" p-id="6910"></path><path d="M362.597979 932.834561h-58.144886q-3.050812-147.246541-16.958925-276.995777h-0.358919l-88.563276 276.995777h-44.326503L66.220573 655.838784h-0.538378q-9.780544 124.63464-12.382708 276.995777H0.000008q5.114596-185.38169 25.752442-347.613101h71.78381l83.897328 255.370905h0.538379l84.435707-255.370905h69.002187q22.70163 189.957908 26.918929 347.613101M614.828342 676.476629q-35.891905 192.82926-93.677872 280.226049-45.582719 67.297322-99.420577 67.297322a97.895171 97.895171 0 0 1-35.891905-8.972976v-30.956768a168.602224 168.602224 0 0 0 24.227036 1.525406 58.503805 58.503805 0 0 0 40.647582-13.908114 50.787046 50.787046 0 0 0 18.484331-38.135149 253.935228 253.935228 0 0 0-14.446491-59.221643l-63.887591-198.213046h57.785967l45.851908 148.233568q15.433519 50.517856 12.831356 70.527593a968.184139 968.184139 0 0 0 52.491912-218.850891z" fill="#00758F" p-id="6911"></path><path d="M1389.285924 932.924291H1224.003701V585.31119h55.632453v304.812004h109.64977v42.801097z" fill="#F29111" p-id="6912"></path><path d="M1180.753956 941.269159l-63.887592-31.495147a119.789233 119.789233 0 0 0 15.971898-15.523249q40.647583-47.825964 40.737313-141.593565 0-172.460604-135.402212-172.550334-66.400024 0-103.548147 43.788124-40.737312 47.915693-40.647582 141.055187 0 91.614088 35.891905 134.594644 32.930823 38.583798 99.420577 38.583798a160.167626 160.167626 0 0 0 45.49299-6.101624l83.17949 48.454072z m-207.006563-77.885434q-21.086494-34.00758-21.086494-109.111392 0-131.274643 79.769759-131.274642a67.028133 67.028133 0 0 1 61.285428 31.405416q21.086494 34.00758 21.086494 108.124365 0 132.3514-79.769759 132.351399a66.938403 66.938403 0 0 1-61.285428-31.405416" fill="#F29111" p-id="6913"></path><path d="M869.660868 836.554526a92.242196 92.242196 0 0 1-32.392444 72.591378q-32.392444 28.264875-86.94814 28.264875a174.344929 174.344929 0 0 1-98.702739-32.482174l14.895141-29.880011a169.409792 169.409792 0 0 0 74.655162 20.548116 78.334083 78.334083 0 0 0 49.17191-13.818384 47.287585 47.287585 0 0 0 18.93298-38.583798c0-20.637845-14.356762-38.314609-40.827042-53.120019-24.406495-13.369735-73.129757-41.275691-73.129757-41.275691-26.38055-19.291899-39.660555-39.929744-39.660555-73.937325a86.409761 86.409761 0 0 1 29.610822-68.194619 111.623825 111.623825 0 0 1 76.449758-26.021631 158.283301 158.283301 0 0 1 88.024897 25.752441l-13.459464 29.790282a170.486549 170.486549 0 0 0-66.938403-14.356762 59.580562 59.580562 0 0 0-41.185962 12.921085 43.070286 43.070286 0 0 0-15.612978 32.930823c0 20.548116 14.715681 38.404338 41.814069 53.837858 24.675685 13.369735 74.565433 41.814069 74.565433 41.814069 26.918929 19.202169 40.647583 39.750285 40.647582 73.488676" fill="#F29111" p-id="6914"></path><path d="M1459.095679 468.841958a194.175206 194.175206 0 0 0-81.474624 11.754599c-6.281083 2.512433-16.330817 2.512433-17.228115 10.498382 3.409731 3.320001 3.76865 8.972976 6.729733 13.459465a97.984901 97.984901 0 0 0 21.804332 25.572982c8.972976 6.729732 17.945953 13.459464 26.918929 19.291899 16.330817 10.139463 34.815148 15.971898 50.787045 26.021631 8.972976 5.832435 18.484331 13.459464 27.726497 19.740548 4.576218 3.320001 7.5373 8.972976 13.459465 10.857301v-1.256216c-2.961082-3.76865-3.76865-8.972976-6.729733-13.459465s-8.434598-7.985949-12.651896-12.113518a200.097371 200.097371 0 0 0-43.788124-42.531907c-13.459464-8.972976-42.890827-21.894062-48.274613-37.327581l-0.807568-0.897298a168.781684 168.781684 0 0 0 28.982714-6.729732c14.267032-3.76865 26.918929-2.961082 41.993529-6.729733 6.729732-1.704865 13.459464-3.76865 20.189196-5.832434v-3.76865c-7.62703-7.5373-13.010816-17.945953-20.996764-24.765415a562.336423 562.336423 0 0 0-69.271377-51.684343c-13.010816-8.434598-29.880011-13.818383-43.698394-20.996764-5.024867-2.512433-13.369735-3.76865-16.330817-7.985949a168.512494 168.512494 0 0 1-17.228115-32.302715c-12.203248-23.060549-23.957847-48.633531-34.456229-73.040027a449.097462 449.097462 0 0 0-21.445413-47.825963c-43.249746-71.78381-90.268141-114.674637-162.5006-157.027085a201.263858 201.263858 0 0 0-53.837858-17.228114c-10.498382 0-20.996764-1.256217-31.495146-1.704866a167.525467 167.525467 0 0 1-19.291899-14.715681c-23.957847-15.0746-85.691923-47.825964-103.278957-4.576218-11.30595 26.918929 16.779466 53.837858 26.47028 68.01516a196.77737 196.77737 0 0 1 21.355683 31.495147c2.961082 7.178381 3.76865 14.715681 6.729733 22.252981a500.602346 500.602346 0 0 0 21.804332 56.260561 198.571965 198.571965 0 0 0 15.523249 26.021632c3.409731 4.665948 8.972976 6.729732 10.498382 14.267032-5.832435 8.344868-6.281083 20.996764-9.690814 31.495147-15.0746 47.467044-8.972976 106.240039 12.203247 141.144916 6.729732 10.498382 22.70163 33.648661 44.147044 24.765415 18.93298-7.5373 14.715681-31.495147 20.189196-52.491911 1.256217-5.114596 0-8.434598 2.961082-11.754599v0.807568c5.832435 11.754599 11.754599 23.060549 17.228115 34.815147a239.668196 239.668196 0 0 0 54.645425 56.260562c10.049733 7.62703 17.945953 20.548116 30.597849 25.214063v-1.256217h-1.076757a46.210828 46.210828 0 0 0-9.690814-8.344868 206.378454 206.378454 0 0 1-21.804332-25.214063 537.571008 537.571008 0 0 1-47.018396-76.449758c-6.729732-13.010816-12.562167-26.918929-17.945953-40.288663-2.512433-5.024867-2.512433-12.562167-6.729732-15.0746a157.565463 157.565463 0 0 0-20.189196 28.534064c-7.985949 17.945953-8.972976 40.378393-11.754599 63.438942-1.704865 0-0.807568 0-1.704866 0.807568-13.459464-3.320001-17.945953-17.228114-23.060549-28.892983a181.702769 181.702769 0 0 1-3.76865-112.162204c2.961082-8.972976 15.523249-36.520013 10.498382-44.864881-2.512433-7.985949-10.947031-12.562167-15.523249-18.93298a166.26925 166.26925 0 0 1-15.0746-26.918929c-10.049733-23.509198-15.16433-49.530829-26.021631-73.040027a224.324407 224.324407 0 0 0-20.996764-32.302714 207.90386 207.90386 0 0 1-23.150279-32.751364c-2.063785-4.665948-5.024867-12.203248-1.704866-17.228114a6.729732 6.729732 0 0 1 5.922165-5.473516c5.473516-4.576218 20.996764 1.256217 26.47028 3.76865a213.377376 213.377376 0 0 1 41.54488 20.996765c5.922164 4.217299 12.203248 12.203248 19.740548 14.267032h8.972976c13.459464 2.871352 28.534065 0.807568 41.185961 4.576218a269.189288 269.189288 0 0 1 60.47786 28.982713 372.647704 372.647704 0 0 1 131.005454 143.567621c5.024867 9.601085 7.178381 18.484331 11.754598 28.534064 8.972976 20.637845 19.740548 41.63461 28.534065 61.734077a276.09848 276.09848 0 0 0 29.880011 56.260561c6.281083 8.972976 31.495147 13.459464 42.801097 17.945953a300.684435 300.684435 0 0 1 28.982713 11.754599c14.267032 8.972976 28.534065 18.93298 41.993529 28.534064 6.729732 5.024867 27.726497 15.523249 28.982713 23.957847" fill="#00758F" p-id="6915"></path><path d="M1499.115154 932.834561h8.972976V890.212924h-13.100546l-10.677841 29.072443-11.57514-29.072443h-12.562166v42.621637h8.255138v-32.392444h0.448649l12.113518 32.392444h6.281083l12.113518-32.392444z m-70.078945 0h8.972976v-35.353526h12.023788v-7.268111h-33.82812v7.268111h12.562167z" fill="#F29111" p-id="6916"></path></svg>