<?xml version="1.0" standalone="no"?><!DOCTYPE svg PUBLIC "-//W3C//DTD SVG 1.1//EN" "http://www.w3.org/Graphics/SVG/1.1/DTD/svg11.dtd"><svg t="1707478725209" class="icon" viewBox="0 0 1024 1024" version="1.1" xmlns="http://www.w3.org/2000/svg" p-id="13102" width="64" height="64" xmlns:xlink="http://www.w3.org/1999/xlink"><path d="M572.8 579.2h156.8l179.2 49.6 108.8-219.2-299.2-248-145.6 417.6z" fill="#07C3F2" p-id="13103"></path><path d="M438.4 0L62.4 156.8 0 819.2l206.4-22.4 147.2-62.4 4.8-105.6L416 323.2 668.8 152 438.4 0z" fill="#21D789" p-id="13104"></path><path d="M288 388.8L0 819.2 350.4 1024l94.4-110.4L416 323.2l-128 65.6z" fill="#FCF84A" p-id="13105"></path><path d="M761.6 0L448 280h355.2L761.6 0z" fill="#21D789" p-id="13106"></path><path d="M464 280l-48 43.2-120 582.4 416 116.8L1024 915.2 896 432l-201.6 78.4L718.4 256 464 280z" fill="#FCF84A" p-id="13107"></path><path d="M192 832h640V192H192v640z" p-id="13108"></path><path d="M256 752h240v-40H256V752zM359.68 409.12A41.12 41.12 0 0 0 405.44 368c0-26.88-17.92-41.12-46.88-41.12h-44.8v83.04zM256 272h107.36c62.72 0 100.64 38.4 100.64 94.08v0.8c0 62.88-47.2 96-106.24 96h-44V544H256z m227.04 136.96a134.72 134.72 0 0 1 138.4-137.12 136.48 136.48 0 0 1 104.48 40.96l-37.12 42.88a97.92 97.92 0 0 0-67.84-29.92A78.56 78.56 0 0 0 544 407.52a78.56 78.56 0 0 0 76.8 83.36 96 96 0 0 0 69.76-31.04l37.12 37.6a135.84 135.84 0 0 1-108.8 48 134.08 134.08 0 0 1-136-136.48" fill="#FFFFFF" p-id="13109"></path></svg>